<?xml version="1.0" standalone="no"?><!DOCTYPE svg PUBLIC "-//W3C//DTD SVG 1.1//EN" "http://www.w3.org/Graphics/SVG/1.1/DTD/svg11.dtd"><svg class="icon" width="200px" height="200.00px" viewBox="0 0 1024 1024" version="1.1" xmlns="http://www.w3.org/2000/svg"><path fill="#e6e6e6" d="M596.48 198.869333l-53.973333-106.24a13.482667 13.482667 0 0 0-23.978667 0l-53.973333 106.24-49.365334-63.061333c-7.850667-9.984-24.106667-4.565333-24.106666 8.021333v141.098667c0 10.837333 8.96 19.498667 19.882666 19.498667H650.24a19.626667 19.626667 0 0 0 19.882667-19.498667V143.786667c0-12.544-16.213333-17.962667-24.064-7.978667l-49.493334 63.061333zM142.250667 568.149333H341.333333c7.04 0 13.781333 1.194667 20.053334 3.413334v-102.997334c0-32.896 26.624-59.690667 59.648-59.690666h209.066666c32.981333 0 59.648 26.794667 59.648 59.690666v199.168h199.04a59.690667 59.690667 0 0 1 59.648 59.690667v99.584c0 32.981333-26.752 59.648-59.648 59.648H142.250667a59.690667 59.690667 0 0 1-59.648-59.648V627.754667a59.733333 59.733333 0 0 1 59.648-59.648z" /></svg>