<?xml version="1.0" standalone="no"?><!DOCTYPE svg PUBLIC "-//W3C//DTD SVG 1.1//EN" "http://www.w3.org/Graphics/SVG/1.1/DTD/svg11.dtd"><svg class="icon" width="200px" height="200.00px" viewBox="0 0 1024 1024" version="1.1" xmlns="http://www.w3.org/2000/svg"><path fill="#e6e6e6" d="M558.933333 96.042667a53.333333 53.333333 0 1 1 0 106.666666 309.290667 309.290667 0 0 0-0.938666 618.581334h0.896a215.466667 215.466667 0 0 0 0-430.976h-0.170667a116.053333 116.053333 0 0 0-0.426667 232.106666c17.152-0.170667 32-14.122667 32-31.317333a31.36 31.36 0 0 0-31.402666-31.36h-0.469334a53.333333 53.333333 0 0 1 0.170667-106.666667h0.298667a138.026667 138.026667 0 0 1 138.026666 138.026667c0 76.245333-62.549333 138.026667-138.794666 138.026667a222.72 222.72 0 0 1 0.768-445.482667 322.133333 322.133333 0 0 1 1.066666 644.266667l-1.066666 0.042666C329.173333 928 142.933333 741.717333 142.933333 512s186.24-415.957333 416-415.957333z" /></svg>