<?xml version="1.0" standalone="no"?><!DOCTYPE svg PUBLIC "-//W3C//DTD SVG 1.1//EN" "http://www.w3.org/Graphics/SVG/1.1/DTD/svg11.dtd"><svg class="icon" width="200px" height="200.00px" viewBox="0 0 1024 1024" version="1.1" xmlns="http://www.w3.org/2000/svg"><path fill="#e6e6e6" d="M688.256 353.152l-25.344 14.634667a42.666667 42.666667 0 0 0-0.170667 73.813333l169.130667 98.645333a42.666667 42.666667 0 0 0 64.170667-37.034666l-0.853334-195.84a42.666667 42.666667 0 0 0-64-36.693334l-30.848 17.792a362.709333 362.709333 0 0 0-604.672 398.378667 362.666667 362.666667 0 0 0 495.36 132.693333 64 64 0 0 0-64-110.805333 234.666667 234.666667 0 1 1 61.226667-355.584z" /></svg>