<?xml version="1.0" standalone="no"?><!DOCTYPE svg PUBLIC "-//W3C//DTD SVG 1.1//EN" "http://www.w3.org/Graphics/SVG/1.1/DTD/svg11.dtd"><svg class="icon" width="200px" height="200.00px" viewBox="0 0 1024 1024" version="1.1" xmlns="http://www.w3.org/2000/svg"><path fill="#e6e6e6" d="M776.106667 416.384L380.501333 183.68c-33.493333-19.712-50.261333-29.568-63.530666-32.512A85.333333 85.333333 0 0 0 217.6 208.042667C213.333333 221.013333 213.333333 240.384 213.333333 279.296v465.408c0 38.912 0 58.325333 4.224 71.253333a85.333333 85.333333 0 0 0 99.413334 56.832c13.226667-2.901333 30.037333-12.757333 63.573333-32.426666l395.562667-232.746667c32.725333-19.242667 49.066667-28.842667 58.026666-38.869333a85.333333 85.333333 0 0 0 0-113.493334c-8.96-10.026667-25.301333-19.626667-58.026666-38.869333z" /></svg>