<?xml version="1.0" standalone="no"?><!DOCTYPE svg PUBLIC "-//W3C//DTD SVG 1.1//EN" "http://www.w3.org/Graphics/SVG/1.1/DTD/svg11.dtd"><svg class="icon" width="200px" height="200.00px" viewBox="0 0 1024 1024" version="1.1" xmlns="http://www.w3.org/2000/svg"><path fill="#e6e6e6" d="M150.4 277.12l137.173333-91.306667a42.666667 42.666667 0 0 1 66.346667 35.498667v490.026667a42.666667 42.666667 0 0 1-19.029333 35.541333l-137.216 91.306667a42.666667 42.666667 0 0 1-66.304-35.498667V312.661333a42.666667 42.666667 0 0 1 19.029333-35.541333zM689.109333 277.12l137.216-91.306667a42.666667 42.666667 0 0 1 66.304 35.498667v490.026667a42.666667 42.666667 0 0 1-19.029333 35.541333l-137.216 91.306667a42.666667 42.666667 0 0 1-66.304-35.498667V312.661333a42.666667 42.666667 0 0 1 19.029333-35.541333zM604.245333 277.12l-137.216-91.306667a42.666667 42.666667 0 0 0-66.304 35.498667v490.026667a42.666667 42.666667 0 0 0 19.029334 35.541333l137.216 91.306667a42.666667 42.666667 0 0 0 66.304-35.498667V312.661333a42.666667 42.666667 0 0 0-19.029334-35.541333z" /></svg>