<?xml version="1.0" standalone="no"?><!DOCTYPE svg PUBLIC "-//W3C//DTD SVG 1.1//EN" "http://www.w3.org/Graphics/SVG/1.1/DTD/svg11.dtd"><svg class="icon" width="200px" height="200.00px" viewBox="0 0 1024 1024" version="1.1" xmlns="http://www.w3.org/2000/svg"><path fill="#e6e6e6" d="M379.776 425.813333l-63.018667 11.050667c-63.018667 11.093333-63.061333 11.093333-63.061333 11.050667v-0.213334l-0.085333-0.384-0.170667-1.066666a258.005333 258.005333 0 0 1-2.133333-15.274667 528.768 528.768 0 0 1-3.114667-40.106667c-1.28-32.512-0.256-77.568 10.410667-123.946666 10.624-46.122667 31.786667-98.048 74.24-138.752 43.818667-42.069333 104.32-66.474667 181.76-66.474667s137.898667 24.405333 181.376 66.816c42.026667 41.002667 62.421333 93.226667 72.277333 139.434667 9.898667 46.421333 10.197333 91.477333 8.32 123.946666a530.432 530.432 0 0 1-6.144 55.381334l-0.213333 1.066666-0.042667 0.384v0.128l-0.042667 0.085334-62.848-12.074667-62.848-12.074667v0.085334-0.213334l0.298667-1.749333a401.578667 401.578667 0 0 0 4.053333-38.314667c1.493333-25.898667 0.981333-58.581333-5.717333-89.941333-6.741333-31.616-18.730667-57.173333-36.48-74.496-16.298667-15.957333-43.093333-30.464-91.946667-30.464-48.896 0-76.245333 14.506667-93.184 30.805333-18.346667 17.621333-30.848 43.52-38.144 75.136-7.210667 31.445333-8.277333 64.170667-7.253333 90.026667a400.896 400.896 0 0 0 3.712 40.021333v0.213334-0.085334zM151.808 503.466667a128 128 0 0 1 128-128h464.384a128 128 0 0 1 128 128v302.464a128 128 0 0 1-128 128H279.808a128 128 0 0 1-128-128V503.466667z m360.192 23.253333a64 64 0 0 0-64 64v128a64 64 0 0 0 128 0v-128a64 64 0 0 0-64-64z" /></svg>