<?xml version="1.0" standalone="no"?><!DOCTYPE svg PUBLIC "-//W3C//DTD SVG 1.1//EN" "http://www.w3.org/Graphics/SVG/1.1/DTD/svg11.dtd"><svg class="icon" width="200px" height="200.00px" viewBox="0 0 1024 1024" version="1.1" xmlns="http://www.w3.org/2000/svg"><path fill="#e6e6e6" d="M853.333333 449.92a341.333333 341.333333 0 1 1-682.666666 0 341.333333 341.333333 0 0 1 682.666666 0z m-279.722666-100.352L530.730667 270.933333a21.333333 21.333333 0 0 0-37.461334 0l-42.88 78.634667a21.333333 21.333333 0 0 1-14.805333 10.752l-88.021333 16.469333a21.333333 21.333333 0 0 0-11.562667 35.626667l61.525333 65.066667a21.333333 21.333333 0 0 1 5.632 17.408l-11.52 88.832a21.333333 21.333333 0 0 0 30.293334 22.016l80.938666-38.4a21.333333 21.333333 0 0 1 18.261334 0l80.938666 38.4a21.333333 21.333333 0 0 0 30.293334-22.016l-11.52-88.832a21.333333 21.333333 0 0 1 5.632-17.408l61.525333-65.066667a21.333333 21.333333 0 0 0-11.52-35.626667l-88.064-16.469333a21.333333 21.333333 0 0 1-14.805333-10.752zM655.445333 823.722667c-84.48 29.866667-196.309333 29.312-287.786666-1.28-13.397333-4.437333-28.074667 4.010667-29.824 18.048l-12.629334 101.034666a21.333333 21.333333 0 0 0 31.573334 21.333334l134.485333-74.752a42.666667 42.666667 0 0 1 41.472 0l134.528 74.752a21.333333 21.333333 0 0 0 31.530667-21.333334l-12.458667-99.754666c-1.834667-14.378667-17.194667-22.869333-30.890667-18.048z" /></svg>