<?xml version="1.0" standalone="no"?><!DOCTYPE svg PUBLIC "-//W3C//DTD SVG 1.1//EN" "http://www.w3.org/Graphics/SVG/1.1/DTD/svg11.dtd"><svg class="icon" width="200px" height="200.00px" viewBox="0 0 1024 1024" version="1.1" xmlns="http://www.w3.org/2000/svg"><path fill="#e6e6e6" d="M104.234667 335.274667a92.757333 92.757333 0 0 1 71.296-110.165334l361.514666-77.397333a92.8 92.8 0 0 1 110.165334 71.338667l111.488 520.96a92.8 92.8 0 0 1-71.253334 110.122666L325.845333 927.573333a92.757333 92.757333 0 0 1-110.122666-71.296L104.234667 335.274667zM667.178667 910.421333l79.146666 9.557334a92.757333 92.757333 0 0 0 103.253334-80.938667l64-528.938667a92.8 92.8 0 0 0-80.981334-103.253333l-138.965333-16.810667c3.413333 8.021333 6.058667 16.469333 7.978667 25.301334L813.226667 736.853333a139.178667 139.178667 0 0 1-106.922667 165.248l-39.125333 8.362667z" /></svg>