<?xml version="1.0" standalone="no"?><!DOCTYPE svg PUBLIC "-//W3C//DTD SVG 1.1//EN" "http://www.w3.org/Graphics/SVG/1.1/DTD/svg11.dtd"><svg class="icon" width="200px" height="200.00px" viewBox="0 0 1024 1024" version="1.1" xmlns="http://www.w3.org/2000/svg"><path fill="#e6e6e6" d="M256 148.650667h21.930667v60.757333a85.333333 85.333333 0 0 0 85.333333 85.333333h297.472a85.333333 85.333333 0 0 0 85.333333-85.333333V148.650667H768a85.333333 85.333333 0 0 1 85.333333 85.333333v597.333333a85.333333 85.333333 0 0 1-85.333333 85.333334H256a85.333333 85.333333 0 0 1-85.333333-85.333334v-597.333333a85.333333 85.333333 0 0 1 85.333333-85.333333z m433.962667 381.312a64 64 0 0 0-99.925334-79.957334l-116.010666 144.981334-36.778667-55.168a64 64 0 1 0-106.496 70.997333l85.333333 128a64 64 0 0 0 103.253334 4.48l170.666666-213.333333zM351.786667 117.632a42.666667 42.666667 0 0 1 42.666666-42.666667h235.093334a42.666667 42.666667 0 0 1 42.666666 42.666667v62.037333a42.666667 42.666667 0 0 1-42.666666 42.666667h-235.093334a42.666667 42.666667 0 0 1-42.666666-42.666667V117.632z" /></svg>