<?xml version="1.0" standalone="no"?><!DOCTYPE svg PUBLIC "-//W3C//DTD SVG 1.1//EN" "http://www.w3.org/Graphics/SVG/1.1/DTD/svg11.dtd"><svg class="icon" width="200px" height="200.00px" viewBox="0 0 1024 1024" version="1.1" xmlns="http://www.w3.org/2000/svg"><path fill="#e6e6e6" d="M858.069333 467.029333c6.741333 6.997333 11.648 15.616 14.378667 25.429334 2.944 10.666667 2.56 21.248-1.109333 31.232a19.797333 19.797333 0 0 1-2.090667 4.266666c-4.906667 7.893333-10.794667 14.506667-17.450667 19.669334a51.370667 51.370667 0 0 1-31.701333 10.965333h-52.224v249.898667c0 33.408-27.008 60.586667-60.16 60.586666h-94.762667v-121.898666c0-51.84-45.098667-93.994667-100.864-93.994667-55.68 0-100.906667 42.026667-100.906666 93.994667v121.898666H303.914667c-33.28 0-60.16-27.178667-60.16-60.586666v-249.898667h-39.978667c-11.52 0-22.485333-3.84-31.445333-10.837333-6.741333-5.290667-12.8-11.946667-17.706667-19.882667a20.736 20.736 0 0 1-1.962667-4.053333 49.962667 49.962667 0 0 1-1.109333-31.232 58.88 58.88 0 0 1 14.506667-25.557334l0.64-0.597333 306.773333-297.728a53.333333 53.333333 0 0 1 38.613333-15.957333c14.848 0 28.16 5.418667 38.186667 15.616l307.2 298.069333 0.597333 0.597333z" /></svg>