<?xml version="1.0" standalone="no"?><!DOCTYPE svg PUBLIC "-//W3C//DTD SVG 1.1//EN" "http://www.w3.org/Graphics/SVG/1.1/DTD/svg11.dtd"><svg class="icon" width="200px" height="200.00px" viewBox="0 0 1024 1024" version="1.1" xmlns="http://www.w3.org/2000/svg"><path fill="#e6e6e6" d="M373.333333 170.666667c0-29.44 23.893333-53.333333 53.333334-53.333334h298.666666A138.666667 138.666667 0 0 1 864 256v512A138.666667 138.666667 0 0 1 725.333333 906.666667h-298.666666a53.333333 53.333333 0 1 1 0-106.666667h298.666666a32 32 0 0 0 32-32V256a32 32 0 0 0-32-32h-298.666666c-29.44 0-53.333333-23.893333-53.333334-53.333333z m-36.949333 132.949333a53.333333 53.333333 0 0 1 0 75.434667L256.768 458.666667H512a53.333333 53.333333 0 1 1 0 106.666666H256.768l79.616 79.616a53.333333 53.333333 0 0 1-75.434667 75.434667l-170.666666-170.666667a53.333333 53.333333 0 0 1 0-75.434666l170.666666-170.666667a53.333333 53.333333 0 0 1 75.434667 0z" /></svg>