<?xml version="1.0" standalone="no"?><!DOCTYPE svg PUBLIC "-//W3C//DTD SVG 1.1//EN" "http://www.w3.org/Graphics/SVG/1.1/DTD/svg11.dtd"><svg class="icon" width="200px" height="200.00px" viewBox="0 0 1024 1024" version="1.1" xmlns="http://www.w3.org/2000/svg"><path fill="#e6e6e6" d="M612.864 228.864a64 64 0 0 0-100.266667 11.946667l-0.256 0.426666a64 64 0 0 0 2.816 70.4L597.333333 426.666667l-405.376 18.432A64 64 0 0 0 128 506.88v10.24A64 64 0 0 0 192 578.901333L597.333333 597.333333l-82.176 115.072a64 64 0 0 0-2.816 70.4l0.256 0.426667a64 64 0 0 0 99.882667 12.288l0.384-0.341333 210.773333-210.773334c25.301333-25.344 37.973333-38.016 42.752-52.608a64 64 0 0 0 0-39.594666c-4.778667-14.592-17.450667-27.264-42.794666-52.608l-210.773334-210.773334z" /></svg>