<?xml version="1.0" standalone="no"?><!DOCTYPE svg PUBLIC "-//W3C//DTD SVG 1.1//EN" "http://www.w3.org/Graphics/SVG/1.1/DTD/svg11.dtd"><svg class="icon" width="200px" height="200.00px" viewBox="0 0 1024 1024" version="1.1" xmlns="http://www.w3.org/2000/svg"><path fill="#e6e6e6" d="M128 325.973333a85.333333 85.333333 0 0 1 85.333333-85.333333h597.333334a85.333333 85.333333 0 0 1 85.333333 85.333333v448a85.333333 85.333333 0 0 1-85.333333 85.333334H213.333333a85.333333 85.333333 0 0 1-85.333333-85.333334V325.973333z m587.52 144.341334a64 64 0 1 0-103.509333-75.306667l-122.368 168.234667-54.058667-64.896a64 64 0 0 0-98.346667 81.92l106.666667 128a64 64 0 0 0 100.949333-3.328l170.666667-234.666667zM320 123.306667c29.44 0 53.333333 23.893333 53.333333 53.333333v128a53.333333 53.333333 0 1 1-106.666666 0v-128c0-29.44 23.893333-53.333333 53.333333-53.333333zM704 123.306667c29.44 0 53.333333 23.893333 53.333333 53.333333v128a53.333333 53.333333 0 1 1-106.666666 0v-128c0-29.44 23.893333-53.333333 53.333333-53.333333z" /></svg>