<?xml version="1.0" standalone="no"?><!DOCTYPE svg PUBLIC "-//W3C//DTD SVG 1.1//EN" "http://www.w3.org/Graphics/SVG/1.1/DTD/svg11.dtd"><svg class="icon" width="200px" height="200.00px" viewBox="0 0 1024 1024" version="1.1" xmlns="http://www.w3.org/2000/svg"><path fill="#e6e6e6" d="M473.770667 120.192a42.666667 42.666667 0 0 1 76.501333 0L640 302.037333a42.666667 42.666667 0 0 0 32.128 23.338667l200.704 29.141333a42.666667 42.666667 0 0 1 23.637333 72.789334l-145.194666 141.568a42.666667 42.666667 0 0 0-12.288 37.76l34.261333 199.850666a42.666667 42.666667 0 0 1-61.866667 44.970667l-179.498666-94.336a42.666667 42.666667 0 0 0-39.722667 0l-179.498667 94.336a42.666667 42.666667 0 0 1-61.866666-44.970667l34.261333-199.850666a42.666667 42.666667 0 0 0-12.288-37.76L127.573333 427.306667a42.666667 42.666667 0 0 1 23.637334-72.789334l200.661333-29.141333A42.666667 42.666667 0 0 0 384 302.037333l89.770667-181.845333z" /></svg>