<?xml version="1.0" standalone="no"?><!DOCTYPE svg PUBLIC "-//W3C//DTD SVG 1.1//EN" "http://www.w3.org/Graphics/SVG/1.1/DTD/svg11.dtd"><svg class="icon" width="200px" height="200.00px" viewBox="0 0 1024 1024" version="1.1" xmlns="http://www.w3.org/2000/svg"><path fill="#e6e6e6" d="M250.026667 668.16c8.448 0.469333 24.32 3.157333 45.696 14.762667l236.373333 199.253333c6.826667 6.826667 15.786667 10.112 27.136 10.112 9.088 0 15.786667-0.981333 20.352-3.242667 18.048-11.392 27.136-26.197333 27.136-44.373333V141.781333c0-9.088-2.261333-17.194667-6.826667-24.746666a37.546667 37.546667 0 0 0-20.309333-16.042667 50.816 50.816 0 0 0-23.765333-5.290667 35.84 35.84 0 0 0-23.765334 8.533334L299.093333 303.829333c-18.261333 10.368-32.725333 14.421333-42.325333 15.872h-71.68a99.413333 99.413333 0 0 0-99.114667 99.584v149.333334c0 55.04 44.373333 99.541333 99.114667 99.541333h58.026667v0.128l1.408-0.128h5.546666z m478.890666 76.8c-25.045333 0-45.226667-20.181333-45.226666-45.226667 0-25.002667 20.181333-45.226667 45.226666-45.226666a151.04 151.04 0 0 0 150.869334-150.912 151.04 151.04 0 0 0-150.869334-150.869334c-25.045333 0-45.226667-20.224-45.226666-45.226666 0-25.045333 20.181333-45.226667 45.226666-45.226667a241.578667 241.578667 0 0 1 241.322667 241.322667c0 133.12-108.373333 241.365333-241.322667 241.365333z m-45.226666-203.648c0 25.045333 20.181333 45.226667 45.226666 45.226667 45.653333 0 82.901333-37.248 82.901334-82.944 0-45.653333-37.12-82.901333-82.901334-82.901334-25.045333 0-45.226667 20.224-45.226666 45.226667v75.392z" /></svg>