<?xml version="1.0" standalone="no"?><!DOCTYPE svg PUBLIC "-//W3C//DTD SVG 1.1//EN" "http://www.w3.org/Graphics/SVG/1.1/DTD/svg11.dtd"><svg class="icon" width="200px" height="192.12px" viewBox="0 0 1066 1024" version="1.1" xmlns="http://www.w3.org/2000/svg"><path fill="#e6e6e6" d="M929.15199966 521.42933301l-1e-8-18.98666601c0-47.317333-38.656-85.589333-86.18666599-85.717334l-134.954667-1e-8 0-112.63999999a54.826667 54.826667 0 0 0-88.021333-43.861333l-271.957334 207.829333c-13.525333 10.368-21.589333 26.837333-21.58933299 43.904 0 17.066667 8.192 33.493333 21.71733299 43.989334l271.957334 207.829333a54.954667 54.954667 0 0 0 33.152 11.221333 54.826667 54.826667 0 0 0 54.741333-55.082666L708.01066666 607.146667 842.96533366 607.146667c47.530667 0 86.186667-38.4 86.186666-85.71733399zM250.15466666 354.133333l0 315.733334a61.013333 61.013333 0 0 1-61.226667 60.8c-33.74933299 0-61.184-27.306667-61.184-60.8l0-315.733334a61.013333 61.013333 0 0 1 61.184-60.842666c33.792 0 61.226667 27.306667 61.226667 60.842666z" /></svg>