<?xml version="1.0" standalone="no"?><!DOCTYPE svg PUBLIC "-//W3C//DTD SVG 1.1//EN" "http://www.w3.org/Graphics/SVG/1.1/DTD/svg11.dtd"><svg class="icon" width="200px" height="192.12px" viewBox="0 0 1066 1024" version="1.1" xmlns="http://www.w3.org/2000/svg"><path fill="#e6e6e6" d="M137.514667 502.570667v18.986666c0 47.317333 38.656 85.589333 86.186666 85.717334h134.954667v112.64a54.826667 54.826667 0 0 0 88.021333 43.861333l271.957334-207.829333c13.525333-10.368 21.589333-26.837333 21.589333-43.904 0-17.066667-8.192-33.493333-21.717333-43.989334l-271.957334-207.829333a54.954667 54.954667 0 0 0-33.152-11.221333 54.826667 54.826667 0 0 0-54.741333 55.082666V416.853333H223.701333c-47.530667 0-86.186667 38.4-86.186666 85.717334zM816.512 669.866667v-315.733334a61.013333 61.013333 0 0 1 61.226667-60.8c33.749333 0 61.184 27.306667 61.184 60.8v315.733334a61.013333 61.013333 0 0 1-61.184 60.842666c-33.792 0-61.226667-27.306667-61.226667-60.842666z" /></svg>