<?xml version="1.0" standalone="no"?><!DOCTYPE svg PUBLIC "-//W3C//DTD SVG 1.1//EN" "http://www.w3.org/Graphics/SVG/1.1/DTD/svg11.dtd"><svg class="icon" width="200px" height="200.00px" viewBox="0 0 1024 1024" version="1.1" xmlns="http://www.w3.org/2000/svg"><path fill="#e6e6e6" d="M842.709333 167.765333H181.333333c-27.306667 0-49.365333 22.101333-49.365333 49.365334V397.653333c0 37.546667 20.864 72.405333 53.76 88.618667v266.709333h-2.133333a51.541333 51.541333 0 1 0 0 103.210667h656.896a51.626667 51.626667 0 0 0 0-103.210667h-2.133334v-266.837333c32.768-16.256 53.461333-50.944 53.461334-88.490667V217.173333a48.938667 48.938667 0 0 0-49.066667-49.365333zM260.138667 652.885333v-160.853333a98.688 98.688 0 0 0 64.213333-63.744A98.688 98.688 0 0 0 418.133333 496.512c43.861333 0 80.981333-28.586667 93.738667-68.224a98.688 98.688 0 0 0 93.738667 68.224c43.904 0 80.981333-28.586667 93.738666-68.224 9.898667 30.293333 34.048 54.272 64.512 63.786667v160.853333H260.138667z" /></svg>