<?xml version="1.0" standalone="no"?><!DOCTYPE svg PUBLIC "-//W3C//DTD SVG 1.1//EN" "http://www.w3.org/Graphics/SVG/1.1/DTD/svg11.dtd"><svg class="icon" width="200px" height="200.00px" viewBox="0 0 1024 1024" version="1.1" xmlns="http://www.w3.org/2000/svg"><path fill="#e6e6e6" d="M411.136 228.864a64 64 0 0 1 100.266667 11.946667l0.256 0.426666a64 64 0 0 1-2.816 70.4L426.666667 426.666667l405.376 18.432 5.12 0.256A64 64 0 0 1 896 512l-0.042667 5.12a64 64 0 0 1-58.794666 61.525333l-5.12 0.256L426.666667 597.333333l82.176 115.072a64 64 0 0 1 2.816 70.4l-0.256 0.426667a64 64 0 0 1-99.882667 12.288l-0.384-0.341333-210.773333-210.773334c-25.301333-25.344-37.973333-38.016-42.709334-52.608a64 64 0 0 1 0-39.594666c4.693333-14.592 17.408-27.264 42.752-52.608l210.773334-210.773334z" /></svg>