<?xml version="1.0" standalone="no"?><!DOCTYPE svg PUBLIC "-//W3C//DTD SVG 1.1//EN" "http://www.w3.org/Graphics/SVG/1.1/DTD/svg11.dtd"><svg class="icon" width="200px" height="200.00px" viewBox="0 0 1024 1024" version="1.1" xmlns="http://www.w3.org/2000/svg"><path fill="#e6e6e6" d="M214.826667 526.378667l-37.504 2.645333a42.666667 42.666667 0 0 0-38.186667 53.802667l21.632 79.104a42.666667 42.666667 0 0 0 60.288 26.88l35.669333-17.92a85.333333 85.333333 0 0 1 50.176-8.149334l521.557334 73.813334a85.333333 85.333333 0 0 0 94.378666-106.666667L804.906667 192.725333a85.333333 85.333333 0 0 0-138.88-41.728l-400.597334 354.133334a85.333333 85.333333 0 0 1-50.602666 21.205333zM476.330667 733.568l-112.426667-15.36a21.333333 21.333333 0 0 0-21.077333 32.256l90.496 148.266667a42.666667 42.666667 0 0 0 47.701333 18.901333l50.517333-13.781333a42.666667 42.666667 0 0 0 25.770667-62.378667l-49.749333-86.869333a42.666667 42.666667 0 0 0-31.232-21.034667z" /></svg>