<?xml version="1.0" standalone="no"?><!DOCTYPE svg PUBLIC "-//W3C//DTD SVG 1.1//EN" "http://www.w3.org/Graphics/SVG/1.1/DTD/svg11.dtd"><svg class="icon" width="200px" height="200.00px" viewBox="0 0 1024 1024" version="1.1" xmlns="http://www.w3.org/2000/svg"><path fill="#e6e6e6" d="M250.026667 668.16c8.448 0.426667 24.277333 3.157333 45.653333 14.762667l236.373333 199.253333c6.826667 6.826667 15.786667 10.112 27.136 10.112 9.130667 0 15.786667-0.981333 20.352-3.242667 18.090667-11.392 27.178667-26.197333 27.178667-44.373333V141.781333c0-9.088-2.304-17.194667-6.826667-24.746666a37.546667 37.546667 0 0 0-20.352-16.042667 50.816 50.816 0 0 0-23.722666-5.290667 35.84 35.84 0 0 0-23.765334 8.533334L299.008 303.829333c-18.218667 10.368-32.682667 14.421333-42.325333 15.872h-71.68a99.413333 99.413333 0 0 0-99.114667 99.584v149.333334c0 55.04 44.373333 99.541333 99.157333 99.541333h58.026667v0.128s0.426667-0.085333 1.408-0.128h5.546667zM727.125333 640a44.458667 44.458667 0 0 1-31.488-75.946667l73.429334-73.386666-73.386667-73.386667a44.544 44.544 0 0 1 0-62.933333 44.544 44.544 0 0 1 62.890667 0l73.386666 73.386666 73.429334-73.386666a44.544 44.544 0 0 1 62.933333 0 44.544 44.544 0 0 1 0 62.890666l-73.386667 73.386667 73.386667 73.429333a44.544 44.544 0 0 1-31.445333 75.946667c-11.349333 0-22.826667-4.352-31.488-13.013333l-73.386667-73.386667-73.386667 73.386667a44.245333 44.245333 0 0 1-31.488 13.013333z" /></svg>