<?xml version="1.0" standalone="no"?><!DOCTYPE svg PUBLIC "-//W3C//DTD SVG 1.1//EN" "http://www.w3.org/Graphics/SVG/1.1/DTD/svg11.dtd"><svg class="icon" width="200px" height="200.00px" viewBox="0 0 1024 1024" version="1.1" xmlns="http://www.w3.org/2000/svg"><path fill="#e6e6e6" d="M427.306667 237.866667a68.266667 68.266667 0 1 0-103.68-88.874667l-136.533334 159.274667a68.266667 68.266667 0 0 0 0 88.874666L285.568 512l-98.474667 114.858667a68.266667 68.266667 0 0 0 0 88.874666l136.533334 159.274667a68.266667 68.266667 0 0 0 103.68-88.874667l-98.474667-114.858666 98.474667-114.858667a68.266667 68.266667 0 0 0 0-88.832L328.832 352.725333l98.474667-114.858666z m409.6 0a68.266667 68.266667 0 0 0-103.68-88.874667l-136.533334 159.274667a68.266667 68.266667 0 0 0 0 88.874666L695.168 512l-98.474667 114.858667a68.266667 68.266667 0 0 0 0 88.874666l136.533334 159.274667a68.266667 68.266667 0 0 0 103.68-88.874667l-98.474667-114.858666 98.474667-114.858667a68.266667 68.266667 0 0 0 0-88.832l-98.474667-114.858667 98.474667-114.858666z" /></svg>