<?xml version="1.0" standalone="no"?><!DOCTYPE svg PUBLIC "-//W3C//DTD SVG 1.1//EN" "http://www.w3.org/Graphics/SVG/1.1/DTD/svg11.dtd"><svg class="icon" width="200px" height="200.00px" viewBox="0 0 1024 1024" version="1.1" xmlns="http://www.w3.org/2000/svg"><path  d="M802.133333 563.2h-211.626666c37.546667-30.72 71.68-64.853333 105.813333-102.4h105.813333c27.306667 0 51.2 23.893333 51.2 51.2s-23.893333 51.2-51.2 51.2z m0-273.066667h-170.666666c-10.24-6.826667-17.066667-17.066667-27.306667-23.893333l-6.826667-3.413333c-17.066667-13.653333-30.72-27.306667-47.786666-37.546667l-6.826667-6.826667c-17.066667-10.24-30.72-20.48-47.786667-30.72h307.2c27.306667 0 51.2 23.893333 51.2 51.2s-23.893333 51.2-51.2 51.2z m-269.653333 20.48c23.893333 20.48 47.786667 40.96 68.266667 64.853334 17.066667 20.48 17.066667 47.786667 0 64.853333-44.373333 47.786667-95.573333 88.746667-153.6 122.88-58.026667 30.72-119.466667 54.613333-184.32 64.853333h-10.24c-20.48 0-40.96-13.653333-51.2-34.133333-10.24-27.306667-17.066667-58.026667-23.893334-88.746667v-6.826666c-3.413333-13.653333-3.413333-27.306667-6.826666-44.373334v-6.826666V409.6c0-13.653333 0-27.306667 3.413333-44.373333v-6.826667c0-13.653333 3.413333-27.306667 6.826667-44.373333V307.2c3.413333-27.306667 13.653333-58.026667 23.893333-85.333333 10.24-23.893333 34.133333-37.546667 61.44-34.133334h3.413333c6.826667 0 10.24 3.413333 17.066667 3.413334 3.413333 0 6.826667 0 10.24 3.413333h3.413333c6.826667 0 10.24 3.413333 13.653334 3.413333 3.413333 0 6.826667 3.413333 10.24 3.413334 0 0 6.826667 3.413333 10.24 3.413333 3.413333 0 6.826667 3.413333 10.24 3.413333 3.413333 0 10.24 3.413333 13.653333 6.826667 3.413333 0 6.826667 3.413333 10.24 3.413333 6.826667 3.413333 10.24 3.413333 17.066667 6.826667h3.413333c3.413333 0 6.826667 3.413333 6.826667 3.413333 10.24 3.413333 13.653333 6.826667 20.48 10.24h3.413333c3.413333 0 3.413333 3.413333 6.826667 3.413334 6.826667 3.413333 17.066667 6.826667 23.893333 13.653333 13.653333 6.826667 23.893333 13.653333 37.546667 23.893333l6.826666 3.413334c13.653333 6.826667 23.893333 17.066667 34.133334 27.306666h3.413333zM221.866667 733.866667h580.266666c27.306667 0 51.2 23.893333 51.2 51.2s-23.893333 51.2-51.2 51.2h-580.266666c-27.306667 0-51.2-23.893333-51.2-51.2s23.893333-51.2 51.2-51.2z"  /></svg>